<?xml version="1.0" encoding="UTF-8" standalone="no"?>
<svg
   viewBox="0 0 512 512"
   version="1.1"
   id="svg16"
   sodipodi:docname="stamp-ring.svg"
   inkscape:version="1.3.2 (091e20e, 2023-11-25, custom)"
   xmlns:inkscape="http://www.inkscape.org/namespaces/inkscape"
   xmlns:sodipodi="http://sodipodi.sourceforge.net/DTD/sodipodi-0.dtd"
   xmlns="http://www.w3.org/2000/svg"
   xmlns:svg="http://www.w3.org/2000/svg">
  <defs
     id="defs16" />
  <sodipodi:namedview
     id="namedview16"
     pagecolor="#ffffff"
     bordercolor="#000000"
     borderopacity="0.25"
     inkscape:showpageshadow="2"
     inkscape:pageopacity="0.0"
     inkscape:pagecheckerboard="0"
     inkscape:deskcolor="#d1d1d1"
     inkscape:zoom="2.0449219"
     inkscape:cx="255.75549"
     inkscape:cy="256"
     inkscape:window-width="2400"
     inkscape:window-height="1261"
     inkscape:window-x="2391"
     inkscape:window-y="-9"
     inkscape:window-maximized="1"
     inkscape:current-layer="svg16" />
  <path
     id="path3"
     d="M 255.66211 68.445312 C 209.032 69.049868 162.22364 87.182143 130.41992 120.38086 L 128 123 C 114.19001 137.78999 102.42968 153.55096 93.929688 171.96094 L 93 174 A 204 204 0 0 0 80.619141 209.4707 L 80 212 C 79.110001 215.57 78.359531 219.12977 77.769531 222.75977 C 71.569537 270.81972 83.929872 317.45988 112.58984 356.33984 C 141.12982 394.04981 185.13098 419.90016 231.96094 426.41016 C 280.18089 432.07015 327.44004 419.77997 366 390 A 179.4 179.4 0 0 0 433.48047 271.75977 C 439.07046 224.12981 426.75044 176.87027 397.23047 138.82031 L 395 136 C 384.78001 122.49001 372.1696 111.25968 358.59961 101.17969 L 357 100 C 328.09003 78.107522 291.92997 67.975103 255.66211 68.445312 z M 264.14062 72.800781 C 305.32058 73.88078 348.15081 91.770655 376.80078 121.64062 L 379 124 C 411.87997 158.48997 431.8807 202.75075 431.2207 250.9707 C 430.0707 295.10066 413.00059 340.2698 380.89062 371.25977 C 379.42396 372.64643 377.9662 374.04255 376.51953 375.44922 C 355.78955 395.7892 330.30028 410.05024 302.32031 417.74023 C 258.79036 429.19022 211.1491 424.97959 171.86914 402.09961 L 170 401 C 156.33001 392.96001 143.76944 384.2996 132.68945 372.84961 L 130 370 C 126.25 366.08 122.53 362.13 119 358 C 90.030029 322.21004 76.900785 278.09988 80.800781 232.16992 L 81 230 C 84.539996 191.16004 104.34089 148.44997 133.88086 122.5 A 164 164 0 0 0 140.44922 116.69922 C 174.09919 85.06925 218.74067 72.230782 264.14062 72.800781 z M 210.63086 189.68945 L 208.38086 189.75 L 208.36914 189.75 C 204.15914 189.78 200.04023 189.68 195.99023 191 C 192.99024 193.92 192.06 195.67055 191.25 199.81055 C 191.17 200.89055 191.08357 201.95333 190.99023 203 C 186.46024 203.66 182.29054 204.03055 178.56055 206.81055 L 176.99023 209 C 174.09024 212.84 173.63937 215.71915 173.60938 220.36914 L 173.65039 222.89062 C 173.63039 225.70396 173.63039 228.51365 173.65039 231.32031 L 173.66992 237.34961 C 173.66992 241.52961 173.67922 245.71373 173.69922 249.90039 C 173.73255 255.35372 173.75 260.80024 173.75 266.24023 L 173.76953 279 L 173.78906 285.07031 L 173.83008 293.83008 L 173.83008 296.5 C 173.84008 301.63999 173.67969 305.09946 176.67969 309.43945 C 179.91968 313.01945 183.14094 314.76914 187.96094 315.36914 L 191.13086 315.36914 L 194.7793 315.38086 L 200.83008 315.35938 C 204.55674 315.36604 208.2862 315.36294 212.01953 315.34961 C 215.97953 315.32961 219.94659 315.32031 223.91992 315.32031 L 243.82031 315.28906 C 252.4003 315.25573 260.98675 315.24023 269.58008 315.24023 L 291.88086 315.21094 L 299.01953 315.19922 L 310.41992 315.17969 L 314.61914 315.16016 L 318.60938 315.16016 L 322.25 315.14062 C 327.55999 315.13063 330.93024 314.58 334.99023 311 C 338.49023 306.76 339.45977 303.76921 339.50977 298.44922 L 339.48047 295.91992 C 339.4938 293.08659 339.4938 290.25325 339.48047 287.41992 C 339.46047 285.39326 339.44922 283.36961 339.44922 281.34961 C 339.44922 277.12295 339.44302 272.89968 339.42969 268.67969 C 339.38969 263.18636 339.36914 257.69255 339.36914 252.19922 L 339.35938 239.33984 L 339.33984 233.21094 L 339.32031 224.38086 L 339.30078 221.68945 C 339.30078 217.16946 339.6 213.9 337 210 C 334.09 206.51 332.82976 205.11945 328.25977 204.43945 L 325 204 L 324.38086 202.13086 L 324 200 C 321.77 198.1 319.96906 197.12 317.03906 196.75 C 313.28907 196.64 309.98 196.6 307 199 C 306.38 201.55 306.38 201.55 305 204 C 301.73 204.6 301.72969 204.59914 299.67969 204.61914 L 297.42969 204.57031 C 294.94969 204.57031 292.46713 204.55596 289.98047 204.5293 L 284.64062 204.4707 C 279.98063 204.45737 275.32325 204.42753 270.66992 204.38086 C 265.84993 204.32753 261.02278 204.28643 256.18945 204.25977 C 245.79613 204.19977 235.39999 204.11333 225 204 C 225.05 199.87 225.65 196.37 223 193 C 218.76 190.35 215.50085 189.64945 210.63086 189.68945 z "
     style="fill:#443430;fill-opacity:1" />
  <path
     id="path5"
     d="M 196.99023 206.2832 C 190.19025 206.41945 183.69062 207.43922 179.89062 210.94922 C 177.60064 214.63922 177.58039 216.93947 177.65039 221.18945 L 177.75 223.81055 C 177.81 226.87053 177.89333 229.93334 178 233 C 183.87332 233.06 189.74582 233.1073 195.61914 233.14062 L 202.81055 233.18945 L 213.41016 233.28906 L 216.76953 233.28906 L 220.0293 233.33984 L 223.07031 233.33984 C 226.02031 233.36984 227.39992 233.50031 229.66992 231.57031 L 231 230 C 238.68998 224.39002 246.67049 221.24914 256.23047 220.86914 C 263.92045 221.16914 273.80041 222.63094 279.40039 228.46094 L 280.94922 230.06055 C 284.9392 233.51053 288.25994 233.67969 293.41992 233.67969 L 296.61914 233.58008 C 300.03914 233.56008 303.46397 233.51589 306.89062 233.44922 C 309.26396 233.39589 311.63953 233.35674 314.01953 233.33008 C 321.00618 233.26341 328.00002 233.15333 335 233 C 335.02667 230.78 335.03906 228.55984 335.03906 226.33984 L 335.06055 223.63086 L 335.08008 220.92969 L 335.09961 218.34961 C 335.10961 215.73961 335.17 214.35 334 212 C 330.54 208.47 327.96906 207.52922 323.03906 207.44922 L 320.71094 207.44922 C 318.08427 207.40922 315.45984 207.39063 312.83984 207.39062 L 307.14062 207.38086 C 302.07397 207.31419 297.00611 207.2793 291.93945 207.2793 L 276.60938 207.17969 C 265.68273 207.10635 254.75053 207.04977 243.81055 207.00977 L 235.10938 206.99023 L 221.11914 206.92969 L 215.90039 206.91992 L 215.89062 206.91992 C 210.89064 206.89492 203.79023 206.14695 196.99023 206.2832 z M 257.76367 224.00195 C 249.69958 223.80822 241.70062 226.275 234 231 C 226.35001 236.77999 220.85969 246.09907 219.17969 255.53906 C 218.28969 267.99905 221.28001 278.22001 229 288 C 238.43999 296.79999 247.45915 299.37922 260.11914 299.19922 C 270.04913 298.49922 278.05087 293.4207 284.63086 286.2207 C 292.52085 276.57071 294.09023 266.21999 292.99023 254 C 291.33024 244.04001 284.65984 235.2907 276.58984 229.4707 C 270.34672 225.91383 264.03574 224.15263 257.76367 224.00195 z M 178 237 L 178 290 L 226 290 C 223.83 286.2 221.69086 282.61945 219.88086 278.68945 C 214.84086 266.92948 215.33094 256.31971 219.96094 244.50977 C 220.9876 242.00977 222 239.50666 223 237 L 178 237 z M 289 237 L 293 245 C 297.68 256.21997 297.07 267.71003 293 279 L 286 290 L 335 290 L 335 237 L 289 237 z M 222.85938 293.42969 L 219.41016 293.50977 C 215.71016 293.52977 212.01673 293.56581 208.33008 293.61914 C 205.76341 293.66581 203.19752 293.7038 200.63086 293.73047 C 193.08421 293.7838 185.53998 293.87333 178 294 L 177.92969 296.30078 L 177.88086 299.31055 C 177.78086 303.32053 177.72 304.58 180 308 C 182.68 309.98 184.51986 310.93914 187.83984 311.36914 L 191.01953 311.36914 L 194.66992 311.38086 L 200.74023 311.35938 C 204.48023 311.36603 208.21589 311.36294 211.94922 311.34961 C 215.92254 311.32961 219.89271 311.32031 223.85938 311.32031 C 230.50603 311.32031 237.15413 311.30906 243.80078 311.28906 C 252.40076 311.25573 260.99963 311.24023 269.59961 311.24023 C 277.05293 311.24023 284.49947 311.23094 291.93945 311.21094 L 299.08984 311.19922 L 310.51953 311.17969 L 314.73047 311.16016 L 318.73047 311.16016 L 322.35938 311.14062 C 326.99936 311.13064 328.82914 310.83914 332.61914 308.11914 C 334.99914 304.99914 335.00047 304.99906 335.23047 302.28906 L 335.15039 299.30078 L 335 294 C 328.70002 293.92 322.39959 293.85411 316.09961 293.80078 L 308.38086 293.75 C 304.58753 293.69667 300.79333 293.65753 297 293.63086 L 293.40039 293.60938 C 287.86041 293.50938 282.19014 292.72922 277.41016 295.94922 C 275.00016 297.99922 275.00023 297.99953 271.99023 299.26953 C 261.12027 302.69953 250.65998 303.79 240 299 C 234.27002 294.62 230.10936 293.42969 222.85938 293.42969 z "
     style="fill:#f7f6f7;fill-opacity:1" />
  <path
     id="path7"
     d="M 255.49219 78.591797 A 167.5 167.5 0 0 0 231.82031 80.380859 L 228.00977 81 C 193.0098 86.339995 159.63013 103.71003 135.41016 129.5 L 134 131 C 125.57001 139.77999 117.60038 149.22048 111.40039 159.73047 C 88.080414 201.47043 79.809232 247.88059 92.699219 294.56055 C 105.12921 336.9005 133.07965 374.58072 172.09961 395.9707 L 174 397 C 210.81996 416.93998 252.67981 423.39905 293.75977 414.28906 C 339.45972 403.46907 376.91979 375.04988 401.75977 335.41992 C 423.47974 299.27996 430.77093 252.6291 420.96094 211.61914 C 420.6276 210.39914 420.30977 209.19333 420.00977 208 C 412.74977 179.63003 398.51013 150.12998 376.91016 129.75 L 375 128 A 317 317 0 0 0 364.75977 118.5 A 167.5 167.5 0 0 0 255.49219 78.591797 z M 258.70117 81.480469 C 264.54859 81.485273 270.43133 81.763047 276.33008 82.310547 C 318.84004 87.550542 358.38917 109.48925 384.86914 143.19922 L 387 146 A 167 167 0 0 1 413.5 195.17969 C 426.87999 237.08965 425.28092 283.62043 404.96094 323.15039 L 404 325 C 396.11001 340.36998 386.55022 354.25923 373.99023 366.19922 C 372.4969 367.59922 371.0093 369.00659 369.5293 370.41992 C 349.71932 389.5999 325.87919 402.40079 299.44922 410.05078 C 259.54926 421.00077 214.05981 416.25904 177.83984 396.03906 L 176 395 C 162.50001 387.48001 150.46921 378.9896 139.69922 367.84961 L 137 365 C 127.35001 354.92001 118.59023 344.46069 111.74023 332.2207 L 110 329 C 100.29001 311.55002 93.449138 292.31998 90.619141 272.5 C 85.629146 228.33004 95.68995 182.58067 123.41992 147.2207 L 126 144 A 138 138 0 0 1 145.5 123.28906 L 147 122 C 178.52622 94.752527 217.76926 81.446836 258.70117 81.480469 z M 256.07617 228.89062 C 252.27726 228.84877 248.44961 229.46758 244.74023 230.83008 C 235.74024 234.73007 229.15945 241.31946 225.43945 250.43945 C 222.49946 260.06944 223.28 269.07001 228 278 C 234.27999 286.71999 241.46001 291.84 252 294 C 261.82999 294.87 269.83087 292.46085 277.63086 286.38086 C 284.02085 280.57087 288.33 272.63999 289 264 C 289.11 253.78001 286.19991 245.35937 279.16992 237.85938 C 272.65243 232.27001 264.43377 228.98271 256.07617 228.89062 z M 256.40039 232.92383 C 259.0557 232.88852 261.78305 233.15195 264.56055 233.68945 C 272.32054 236.64945 277.9 240.66001 282 248 C 285.42 256.21999 286.07 263.53001 283 272 C 278.98 280.79999 273.87046 285.8493 264.73047 289.2793 C 256.48048 291.44929 248.55984 290.21961 241.08984 286.34961 A 31.6 31.6 0 0 1 228 268 C 227.08 257.51001 228.80001 250.51999 235 242 C 241.11249 235.82751 248.43446 233.02977 256.40039 232.92383 z M 263.76367 247.81641 C 262.1249 247.85186 260.64805 248.17305 258.81055 249.06055 L 257 250 L 254 249 C 250.57 248.39 247.22 247.39 244 249 C 241.2 251.13 239.21062 252.66977 238.64062 256.25977 C 238.61063 261.20976 239.00055 263.68946 242.06055 267.68945 C 246.43054 272.82945 250.99001 278.3 258 279 C 263.96999 276.49 268.99946 270.90999 272.43945 265.5 C 274.45945 260.97 274.77055 257.51 273.31055 252.75 C 271.48055 250.31 269.77 249.26 267 248 C 265.78875 247.87625 264.74693 247.79514 263.76367 247.81641 z M 248.38086 251.56055 C 251.00086 252.00055 251.00055 252 253.81055 254 L 256 256 C 258.12 254 258.12 254 261 252 C 264.2 251.55 266.05086 251.46055 268.88086 253.06055 C 270.00086 255.00054 270.00086 255.00086 270.38086 258.38086 C 269.96086 262.39086 269.5 263.88 267 267 C 263.53 270.45 260.11999 274.55 255 275 A 41 41 0 0 1 243 262.88086 C 241.88 259.64086 241.8 258.18 243 255 C 244.65 252.61 245.51086 252.09055 248.38086 251.56055 z "
     style="fill:#3a2925;fill-opacity:1" />
  <path
     fill="#b4aead"
     d="M301.31 214.5h5.62l3.07.06 3.06-.02c7.42.07 7.42.07 9.73 1.84 1.68 2.26 1.61 3.89 1.58 6.68l.03 2.66-.4 2.28c-4.48 2.98-8.74 2.33-14 2.3q-1.5.05-3.07.06h-5.62c-2.3-.36-2.3-.36-4.1-1.63-1.7-2.44-1.58-4.8-1.6-7.7.68-3.51 2.11-5.75 5.7-6.53"
     id="path14" />
</svg>
